# xmcd CD database file
#
# Track frame offsets:
#	150
#	15386
#	40682
#	54638
#	68637
#	87351
#	104337
#	122215
#	141873
#	157855
#	163448
#
# Disc length: 2434 seconds
#
# Revision: 1
# Processed by: cddbd v1.5.2PL0 Copyright (c) Steve Scherf et al.
# Submitted via: CDex 1.70beta2
#
DISCID=8d09800b
DTITLE=The Devil Makes Three - Live at Beat Kitchen, Chicago, Illinois - 1er nov. 2009 [CD 2/2)
DYEAR=2009
DGENRE=Autre
TTITLE0=Robot
TTITLE1=Car wreck
TTITLE2=Cheap reward
TTITLE3=Old number seven
TTITLE4=Man tap
TTITLE5=St James infirmary
TTITLE6=Do wrong right
TTITLE7=Black Irish
TTITLE8=Help yourself
TTITLE9=(Band intro/Crowd)
TTITLE10=Bangor Mash
EXTD=YEAR: 2009
EXTT0=
EXTT1=
EXTT2=
EXTT3=
EXTT4=
EXTT5=
EXTT6=
EXTT7=
EXTT8=
EXTT9=
EXTT10=
PLAYORDER=
